# Blender v2.69 (sub 0) OBJ File: '20140320_SpaceClimber_bones_reset_coms.blend'
# www.blender.org
o visual_laserscanner_laserscanner
v 0.021000 -0.020000 0.000000
v 0.020466 -0.020000 -0.004705
v 0.018891 -0.020000 -0.009171
v 0.016356 -0.020000 -0.013171
v -0.000233 -0.020000 -0.020999
v -0.004932 -0.020000 -0.020413
v -0.009381 -0.020000 -0.018788
v -0.013352 -0.020000 -0.016209
v -0.024284 -0.020000 -0.004250
v -0.019090 -0.020000 -0.008750
v -0.020565 -0.020000 -0.004250
v -0.016644 -0.020000 -0.012805
v 0.004478 -0.020000 -0.020517
v 0.008961 -0.020000 -0.018992
v 0.012989 -0.020000 -0.016501
v 0.020466 -0.020000 0.004705
v 0.018891 -0.020000 0.009172
v 0.016356 -0.020000 0.013171
v 0.012989 -0.020000 0.016501
v 0.008961 -0.020000 0.018992
v 0.004478 -0.020000 0.020517
v -0.000233 -0.020000 0.020999
v -0.004932 -0.020000 0.020413
v -0.009381 -0.020000 0.018788
v -0.013352 -0.020000 0.016209
v -0.016644 -0.020000 0.012805
v -0.019090 -0.020000 0.008750
v -0.024284 -0.020000 0.004250
v -0.020565 -0.020000 0.004250
v -0.002290 -0.008000 0.018861
v 0.018448 -0.008000 -0.004547
v 0.017905 0.008000 -0.004413
v 0.019000 -0.008000 0.000000
v 0.016329 0.008000 -0.008570
v 0.016824 -0.008000 -0.008830
v 0.013804 0.008000 -0.012229
v 0.014222 -0.008000 -0.012599
v 0.010476 0.008000 -0.015177
v 0.010793 -0.008000 -0.015637
v 0.006539 0.008000 -0.017243
v 0.006738 -0.008000 -0.017765
v 0.002223 0.008000 -0.018307
v 0.002290 -0.008000 -0.018861
v -0.002223 0.008000 -0.018307
v -0.002290 -0.008000 -0.018861
v -0.006539 0.008000 -0.017243
v -0.006737 -0.008000 -0.017765
v -0.010476 0.008000 -0.015177
v -0.010793 -0.008000 -0.015637
v -0.013803 0.008000 -0.012229
v -0.014222 -0.008000 -0.012599
v -0.016329 0.008000 -0.008570
v -0.016824 -0.008000 -0.008830
v -0.017905 0.008000 -0.004413
v -0.018448 -0.008000 -0.004547
v -0.018441 0.008000 0.000000
v -0.019000 -0.008000 0.000000
v -0.017905 0.008000 0.004413
v -0.018448 -0.008000 0.004547
v -0.016329 0.008000 0.008570
v -0.016824 -0.008000 0.008830
v -0.013803 0.008000 0.012229
v -0.014222 -0.008000 0.012599
v -0.010476 0.008000 0.015177
v -0.010793 -0.008000 0.015637
v -0.006539 0.008000 0.017243
v -0.006737 -0.008000 0.017765
v -0.002223 0.008000 0.018307
v 0.002223 0.008000 0.018307
v 0.002290 -0.008000 0.018861
v 0.006539 0.008000 0.017243
v 0.006738 -0.008000 0.017765
v 0.010476 0.008000 0.015177
v 0.010793 -0.008000 0.015637
v 0.013804 0.008000 0.012229
v 0.014222 -0.008000 0.012599
v 0.016329 0.008000 0.008570
v 0.016824 -0.008000 0.008830
v 0.017905 0.008000 0.004413
v 0.018448 -0.008000 0.004547
v 0.018441 0.008000 0.000000
v -0.020565 -0.008000 -0.004250
v -0.019090 -0.008000 -0.008750
v -0.016644 -0.008000 -0.012805
v -0.013352 -0.008000 -0.016209
v -0.009381 -0.008000 -0.018788
v -0.004932 -0.008000 -0.020413
v -0.000233 -0.008000 -0.020999
v 0.004478 -0.008000 -0.020517
v 0.008961 -0.008000 -0.018992
v 0.012989 -0.008000 -0.016501
v 0.016356 -0.008000 -0.013171
v 0.018891 -0.008000 -0.009171
v 0.020466 -0.008000 -0.004705
v 0.021000 -0.008000 0.000000
v 0.020466 -0.008000 0.004705
v 0.018891 -0.008000 0.009172
v 0.016356 -0.008000 0.013171
v 0.012989 -0.008000 0.016501
v 0.008961 -0.008000 0.018992
v 0.004478 -0.008000 0.020517
v -0.000233 -0.008000 0.020999
v -0.004932 -0.008000 0.020413
v -0.009381 -0.008000 0.018788
v -0.013352 -0.008000 0.016209
v -0.016644 -0.008000 0.012805
v -0.019090 -0.008000 0.008750
v -0.020565 -0.008000 0.004250
v -0.024284 -0.008000 -0.004250
v -0.024284 -0.008000 0.004250
v -0.009381 -0.008000 0.018788
v -0.004932 -0.008000 0.020413
v -0.000233 -0.008000 0.020999
v 0.004478 -0.008000 0.020517
v 0.008961 -0.008000 0.018992
v 0.012989 -0.008000 0.016501
v 0.016356 -0.008000 0.013171
v 0.018891 -0.008000 0.009172
v 0.020466 -0.008000 0.004705
v 0.021000 -0.008000 0.000000
v 0.020466 -0.008000 -0.004705
v 0.018891 -0.008000 -0.009171
v 0.016356 -0.008000 -0.013171
v 0.012989 -0.008000 -0.016501
v 0.008961 -0.008000 -0.018992
v 0.004478 -0.008000 -0.020517
v -0.000233 -0.008000 -0.020999
v -0.004932 -0.008000 -0.020413
v -0.009381 -0.008000 -0.018788
v -0.013352 -0.008000 -0.016209
v -0.016644 -0.008000 -0.012805
v -0.019090 -0.008000 -0.008750
v -0.020565 -0.008000 -0.004250
v -0.020565 -0.008000 -0.004250
v -0.020565 -0.020000 -0.004250
v -0.024284 -0.008000 -0.004250
v -0.024284 -0.008000 -0.004250
v -0.024284 -0.020000 -0.004250
v -0.024284 -0.008000 0.004250
v -0.024284 -0.008000 0.004250
v -0.024284 -0.020000 0.004250
v -0.020565 -0.008000 0.004250
v -0.020565 -0.008000 0.004250
v -0.020565 -0.020000 0.004250
v -0.019090 -0.008000 0.008750
v -0.016644 -0.008000 0.012805
v -0.013352 -0.008000 0.016209
v -0.010793 -0.008000 0.015637
v -0.014222 -0.008000 0.012599
v -0.016824 -0.008000 0.008830
v -0.018448 -0.008000 0.004547
v -0.019000 -0.008000 0.000000
v -0.018448 -0.008000 -0.004547
v -0.016824 -0.008000 -0.008830
v -0.014222 -0.008000 -0.012599
v -0.010793 -0.008000 -0.015637
v -0.006737 -0.008000 -0.017765
v -0.002290 -0.008000 -0.018861
v 0.002290 -0.008000 -0.018861
v 0.006738 -0.008000 -0.017765
v 0.010793 -0.008000 -0.015637
v 0.014222 -0.008000 -0.012599
v 0.016824 -0.008000 -0.008830
v 0.018448 -0.008000 -0.004547
v 0.019000 -0.008000 0.000000
v 0.018448 -0.008000 0.004547
v 0.016824 -0.008000 0.008830
v 0.014222 -0.008000 0.012599
v 0.010793 -0.008000 0.015637
v 0.006738 -0.008000 0.017765
v 0.002290 -0.008000 0.018861
v -0.002290 -0.008000 0.018861
v -0.006737 -0.008000 0.017765
v -0.006539 0.008000 0.017243
v -0.010476 0.008000 0.015177
v -0.013803 0.008000 0.012229
v -0.016329 0.008000 0.008570
v -0.017905 0.008000 0.004413
v -0.018441 0.008000 0.000000
v -0.017905 0.008000 -0.004413
v -0.016329 0.008000 -0.008570
v -0.013803 0.008000 -0.012229
v -0.010476 0.008000 -0.015177
v -0.006539 0.008000 -0.017243
v -0.002223 0.008000 -0.018307
v 0.002223 0.008000 -0.018307
v 0.006539 0.008000 -0.017243
v 0.010476 0.008000 -0.015177
v 0.013804 0.008000 -0.012229
v 0.016329 0.008000 -0.008570
v 0.017905 0.008000 -0.004413
v 0.018441 0.008000 0.000000
v 0.017905 0.008000 0.004413
v 0.016329 0.008000 0.008570
v 0.013804 0.008000 0.012229
v 0.010476 0.008000 0.015177
v 0.006539 0.008000 0.017243
v 0.002223 0.008000 0.018307
v -0.002223 0.008000 0.018307
vn 0.970350 0.034900 -0.239170
vn 0.970351 0.034900 -0.239169
vn 0.999391 0.034900 -0.000001
vn 0.884918 0.034899 -0.464437
vn 0.884916 0.034898 -0.464441
vn 0.748054 0.034898 -0.662720
vn 0.567718 0.034898 -0.822483
vn 0.567720 0.034899 -0.822482
vn 0.354389 0.034899 -0.934447
vn 0.354390 0.034899 -0.934446
vn 0.120463 0.034899 -0.992104
vn 0.120464 0.034899 -0.992104
vn -0.120464 0.034899 -0.992104
vn -0.120463 0.034899 -0.992104
vn -0.354389 0.034899 -0.934447
vn -0.567718 0.034899 -0.822483
vn -0.567719 0.034899 -0.822482
vn -0.748054 0.034898 -0.662720
vn -0.748054 0.034898 -0.662719
vn -0.884918 0.034898 -0.464437
vn -0.884916 0.034900 -0.464441
vn -0.970350 0.034900 -0.239170
vn -0.970350 0.034901 -0.239171
vn -0.999391 0.034901 0.000000
vn -0.999391 0.034900 0.000000
vn -0.970351 0.034901 0.239169
vn -0.970350 0.034900 0.239170
vn -0.884918 0.034900 0.464437
vn -0.884916 0.034899 0.464441
vn -0.748054 0.034899 0.662720
vn -0.567718 0.034900 0.822483
vn -0.567719 0.034900 0.822482
vn -0.354388 0.034900 0.934447
vn -0.354390 0.034900 0.934446
vn -0.120463 0.034900 0.992104
vn -0.120464 0.034900 0.992104
vn 0.120463 0.034900 0.992104
vn 0.354388 0.034900 0.934447
vn 0.354389 0.034900 0.934447
vn 0.567717 0.034900 0.822483
vn 0.567719 0.034899 0.822482
vn 0.748054 0.034899 0.662720
vn 0.748055 0.034898 0.662719
vn 0.884918 0.034898 0.464437
vn 0.884916 0.034900 0.464441
vn 0.970350 0.034900 0.239170
vn 0.970350 0.034900 0.239171
vn 0.999391 0.034900 -0.000000
vn 0.000000 1.000000 -0.000000
vn 0.000000 1.000000 -0.000001
vn 0.000000 1.000000 -0.000002
vn 0.000000 1.000000 0.000003
vn -0.950245 0.000000 -0.311505
vn -0.909062 -0.000000 -0.416660
vn -0.792586 -0.000000 -0.609760
vn -0.635805 -0.000000 -0.771849
vn -0.446696 -0.000000 -0.894686
vn -0.234869 -0.000000 -0.972027
vn -0.011098 -0.000000 -0.999938
vn 0.213236 -0.000000 -0.977001
vn 0.426728 -0.000000 -0.904380
vn 0.618518 -0.000000 -0.785771
vn 0.618518 -0.000000 -0.785770
vn 0.778857 -0.000000 -0.627202
vn 0.778857 -0.000001 -0.627201
vn 0.899589 -0.000000 -0.436737
vn 0.899589 -0.000001 -0.436737
vn 0.974574 -0.000000 -0.224066
vn 0.974574 -0.000001 -0.224066
vn 1.000000 -0.000000 0.000000
vn 0.974574 -0.000000 0.224066
vn 0.899589 0.000000 0.436738
vn 0.899589 0.000000 0.436737
vn 0.778857 0.000000 0.627202
vn 0.618518 0.000000 0.785771
vn 0.426727 0.000000 0.904380
vn 0.213235 0.000000 0.977001
vn 0.213236 0.000000 0.977001
vn -0.011099 0.000000 0.999938
vn -0.011098 0.000000 0.999938
vn -0.234869 0.000000 0.972027
vn -0.234868 0.000000 0.972027
vn -0.446695 0.000000 0.894686
vn -0.635806 0.000000 0.771849
vn -0.635805 0.000000 0.771849
vn -0.792586 0.000000 0.609760
vn -0.909062 0.000000 0.416660
vn -0.909062 0.000000 0.416661
vn -0.950245 0.000000 0.311505
vn -1.000000 0.000000 -0.000000
vn 0.000000 -0.000001 -1.000000
vn 0.000000 0.000001 1.000000
s 1
f 31//1 32//2 33//3
f 31//1 34//4 32//2
f 31//1 35//5 34//4
f 34//4 35//5 36//6
f 36//6 35//5 37//6
f 38//7 37//6 39//8
f 40//9 39//8 41//10
f 42//11 41//10 43//12
f 42//11 43//12 44//13
f 44//13 43//12 45//14
f 46//15 45//14 47//15
f 48//16 47//15 49//17
f 50//18 49//17 51//19
f 52//20 51//19 53//21
f 54//22 53//21 55//23
f 56//24 55//23 57//25
f 58//26 57//25 59//27
f 60//28 59//27 61//29
f 62//30 61//29 63//30
f 64//31 63//30 65//32
f 66//33 65//32 67//34
f 68//35 67//34 30//36
f 30//36 69//37 68//35
f 69//37 30//36 70//37
f 71//38 70//37 72//39
f 73//40 72//39 74//41
f 75//42 74//41 76//43
f 77//44 76//43 78//45
f 79//46 78//45 80//47
f 81//48 80//47 33//3
f 32//2 81//48 33//3
f 36//6 37//6 38//7
f 38//7 39//8 40//9
f 40//9 41//10 42//11
f 44//13 45//14 46//15
f 46//15 47//15 48//16
f 48//16 49//17 50//18
f 50//18 51//19 52//20
f 52//20 53//21 54//22
f 54//22 55//23 56//24
f 56//24 57//25 58//26
f 58//26 59//27 60//28
f 60//28 61//29 62//30
f 62//30 63//30 64//31
f 64//31 65//32 66//33
f 66//33 67//34 68//35
f 69//37 70//37 71//38
f 71//38 72//39 73//40
f 73//40 74//41 75//42
f 75//42 76//43 77//44
f 77//44 78//45 79//46
f 79//46 80//47 81//48
f 191//49 180//50 192//49
f 191//49 181//50 180//50
f 191//49 190//49 181//50
f 181//50 190//49 182//49
f 182//49 190//49 189//49
f 183//49 189//49 188//50
f 184//49 188//50 187//50
f 185//50 187//50 186//49
f 185//50 184//49 187//50
f 182//49 189//49 183//49
f 183//49 188//50 184//49
f 180//50 179//49 192//49
f 192//49 179//49 193//50
f 193//50 179//49 178//49
f 194//50 178//49 177//50
f 195//49 177//50 176//50
f 196//49 176//50 175//50
f 197//49 175//50 174//50
f 198//51 174//50 199//52
f 198//51 197//49 174//50
f 193//50 178//49 194//50
f 194//50 177//50 195//49
f 195//49 176//50 196//49
f 196//49 175//50 197//49
f 82//53 83//54 11//53
f 11//53 83//54 10//54
f 10//54 83//54 84//55
f 12//55 84//55 85//56
f 8//56 85//56 86//57
f 7//57 86//57 87//58
f 6//58 87//58 88//59
f 5//59 88//59 89//60
f 13//60 89//60 90//61
f 14//61 90//61 91//62
f 15//63 91//62 92//64
f 4//65 92//64 93//66
f 3//67 93//66 94//68
f 2//69 94//68 95//70
f 1//70 95//70 96//71
f 16//71 96//71 97//72
f 17//73 97//72 98//74
f 18//74 98//74 99//75
f 19//75 99//75 100//76
f 20//76 100//76 101//77
f 21//78 101//77 102//79
f 22//80 102//79 103//81
f 23//82 103//81 104//83
f 24//83 104//83 105//84
f 25//85 105//84 106//86
f 26//86 106//86 107//87
f 27//88 107//87 108//89
f 29//89 27//88 108//89
f 10//54 84//55 12//55
f 12//55 85//56 8//56
f 8//56 86//57 7//57
f 7//57 87//58 6//58
f 6//58 88//59 5//59
f 5//59 89//60 13//60
f 13//60 90//61 14//61
f 14//61 91//62 15//63
f 15//63 92//64 4//65
f 4//65 93//66 3//67
f 3//67 94//68 2//69
f 95//70 1//70 2//69
f 1//70 96//71 16//71
f 16//71 97//72 17//73
f 17//73 98//74 18//74
f 18//74 99//75 19//75
f 19//75 100//76 20//76
f 20//76 101//77 21//78
f 21//78 102//79 22//80
f 22//80 103//81 23//82
f 23//82 104//83 24//83
f 24//83 105//84 25//85
f 25//85 106//86 26//86
f 26//86 107//87 27//88
f 109//90 9//90 110//90
f 110//90 9//90 28//90
f 134//91 135//91 137//91
f 137//91 135//91 138//91
f 140//92 141//92 143//92
f 143//92 141//92 144//92
f 166//49 119//49 165//50
f 166//49 118//50 119//49
f 166//49 167//50 118//50
f 118//50 167//50 117//50
f 117//50 167//50 168//50
f 116//50 168//50 169//50
f 115//50 169//50 170//50
f 114//50 170//50 171//50
f 113//50 171//50 172//49
f 112//49 172//49 173//49
f 111//49 173//49 148//50
f 147//50 148//50 149//50
f 146//49 149//50 150//49
f 145//50 150//49 151//50
f 142//49 151//50 152//49
f 139//49 152//49 136//50
f 139//49 142//49 152//49
f 117//50 168//50 116//50
f 116//50 169//50 115//50
f 115//50 170//50 114//50
f 114//50 171//50 113//50
f 113//50 172//49 112//49
f 112//49 173//49 111//49
f 111//49 148//50 147//50
f 147//50 149//50 146//49
f 146//49 150//49 145//50
f 145//50 151//50 142//49
f 136//50 152//49 133//50
f 133//50 152//49 153//50
f 132//50 153//50 154//50
f 131//50 154//50 155//50
f 130//50 155//50 156//50
f 129//50 156//50 157//49
f 128//50 157//49 158//50
f 127//49 158//50 159//49
f 126//49 159//49 160//50
f 125//50 160//50 161//51
f 124//50 161//51 162//49
f 123//49 162//49 163//49
f 122//49 163//49 164//49
f 121//50 164//49 165//50
f 120//50 165//50 119//49
f 120//50 121//50 165//50
f 133//50 153//50 132//50
f 132//50 154//50 131//50
f 131//50 155//50 130//50
f 130//50 156//50 129//50
f 129//50 157//49 128//50
f 128//50 158//50 127//49
f 127//49 159//49 126//49
f 126//49 160//50 125//50
f 125//50 161//51 124//50
f 124//50 162//49 123//49
f 123//49 163//49 122//49
f 122//49 164//49 121//50
